<svg width="661" height="702" viewBox="0 0 661 702" fill="none" xmlns="http://www.w3.org/2000/svg">
<g opacity="0.9">
<rect x="402.24" y="41.6677" width="258.52" height="232.23" rx="13" fill="#CCA51D"/>
<rect x="421.89" y="56.0601" width="219.219" height="196.434" stroke="white" stroke-width="6" stroke-dasharray="14 14"/>
<rect x="433.788" y="175.748" width="194.547" height="6.13437" fill="white"/>
<rect x="433.788" y="194.151" width="194.547" height="6.13437" fill="white"/>
<rect x="433.788" y="212.554" width="131.451" height="6.13437" fill="white"/>
<rect x="590.653" y="230.957" width="37.6826" height="6.13437" fill="white"/>
<path d="M513.643 164H484.459V161.024L493.483 154.016L486.091 136.256H453.835L445.963 154.4L462.859 160.16L460.939 164H431.755V161.024L440.779 153.92L467.947 91.616L477.931 86.72L505.963 154.304L515.563 160.16L513.643 164ZM470.347 98.24L455.755 131.936H484.363L470.347 98.24ZM570.87 164H552.63V155.648L541.782 164.192C540.502 164.704 538.902 164.96 536.982 164.96C531.478 164.96 527.478 163.584 524.982 160.832C522.55 158.08 521.334 154.784 521.334 150.944C521.334 148.64 522.166 146.368 523.83 144.128C525.494 141.888 527.862 139.776 530.934 137.792H552.63V131.648C552.63 127.488 551.51 124.544 549.27 122.816C547.094 121.088 544.086 120.224 540.246 120.224C536.278 120.224 531.414 122.624 525.654 127.424L522.774 123.776L536.598 112.832C539.158 112.32 542.23 112.064 545.814 112.064C551.638 112.064 556.15 113.504 559.35 116.384C562.55 119.2 564.15 123.328 564.15 128.768V156.8L572.79 160.16L570.87 164ZM540.054 156.8C543.958 156.8 548.15 155.008 552.63 151.424V141.728H535.638C534.806 142.752 534.198 143.776 533.814 144.8C533.494 145.824 533.334 146.944 533.334 148.16C533.334 150.528 533.942 152.576 535.158 154.304C536.374 155.968 538.006 156.8 540.054 156.8Z" fill="white"/>
</g>
<path d="M555.599 372.486L513.535 416.303C511.636 418.932 507.488 425.417 506.086 430.324C504.684 435.232 507.546 439.964 509.153 441.717C517.566 448.727 529.601 450.188 534.567 450.042L570.935 372.486C564.625 366.527 558.082 370.003 555.599 372.486Z" fill="#371400"/>
<path d="M513.535 416.303C505.063 412.798 487.945 405.7 487.244 405.349L480.672 419.809L506.524 429.887C508.423 430.179 513.447 430.588 518.354 429.887C523.262 429.186 522.152 425.505 520.983 423.752L513.535 416.303Z" fill="#E7AC76"/>
<path d="M329.065 384.755L283.934 405.349L329.065 483.343L415.385 405.349L489.873 434.268L501.266 405.349L407.498 342.252L329.065 384.755Z" fill="#5A37E6"/>
<path d="M414.623 173.87L424.828 240.338C426.339 244.866 429.93 254.796 432.197 258.289C435.032 262.656 439 265.567 446.37 265.082C452.266 264.693 462.055 258.774 466.212 255.863L424.828 168.047C415.304 166.883 414.056 171.444 414.623 173.87Z" fill="#371400"/>
<path d="M428.092 242.788L402.24 259.438L411.441 273.46L433.788 259.438C434.81 258.27 437.556 254.794 440.36 250.237C441.439 248.484 440.798 245.417 437.293 244.979L428.092 242.788Z" fill="#FFD79C"/>
<path d="M200.561 185.585L196.452 191.163C200.771 193.851 209.542 198.532 210.072 195.756C210.734 192.286 212.652 189.775 218.573 185.428C223.309 181.95 228.227 174.859 230.094 171.748C228.412 169.546 224.539 170.411 221.923 172.235C219.829 173.694 218.453 171.572 218.026 170.329C216.975 166.366 214.557 156.974 213.286 151.109C212.016 145.245 210.444 148.224 209.816 150.447L200.561 185.585Z" fill="#FFD79C"/>
<path d="M284.921 235.405L279.552 239.05C282.581 242.695 288.968 249.418 290.29 247.15C291.942 244.315 294.42 242.695 301.028 240.67C306.314 239.05 312.867 234.325 315.482 232.165C314.656 229.735 310.939 229.33 308.048 230.14C305.736 230.788 305.157 228.52 305.157 227.305C305.433 223.525 306.149 214.588 306.809 209.08C307.47 203.572 305.157 205.705 303.919 207.46L284.921 235.405Z" fill="#E7AC76"/>
<path d="M224.343 281.785C211.022 291.249 164.46 311.726 142.843 320.782C148.247 343.129 171.237 380.548 219.961 351.454C268.686 322.359 293.135 270.685 299.27 248.484L283.496 231.833C269.328 244.54 237.663 272.32 224.343 281.785Z" fill="#962222"/>
<path d="M143.18 288.795L126.193 317.271L261.652 472.827C290.109 461.776 334.304 427.52 283.43 378.898C232.557 330.277 168.733 298.571 143.18 288.795Z" fill="#D9D9D9"/>
<path d="M366.31 481.59L267.283 544.248L270.351 481.59V334.803L409.688 249.36L420.643 274.774L333.009 365.475C336.865 399.477 356.816 457.053 366.31 481.59Z" fill="#6846F2"/>
<path d="M124.878 301.064L115.239 318.153C128.822 359.341 197.176 558.27 201.996 566.595C205.852 573.255 209.445 574.336 210.759 574.044C218.939 573.313 242.834 567.296 272.98 549.068C303.126 530.84 288.754 490.061 277.799 471.95C205.239 348.562 145.618 306.614 124.878 301.064Z" fill="#CC3434"/>
<path d="M118.306 274.774L145.472 289.233L132.327 307.636L89.8246 280.908L50.8275 266.449C49.3669 247.315 53.4565 210.889 81.4993 218.25C116.553 227.452 130.136 244.978 134.518 249.798C138.9 254.618 136.709 258.123 133.203 262.943C130.399 266.799 122.103 272.437 118.306 274.774Z" fill="#FFD79C"/>
<path d="M125.755 315.524L128.822 330.422L157.303 379.935C194.547 326.478 200.243 285.728 203.749 242.35C206.553 207.647 210.467 196.342 212.074 195.027L200.243 182.759L125.755 315.524Z" fill="#CC3434"/>
<path d="M66.1635 247.607C68.2667 249.009 69.961 246.439 70.5452 244.978C72.6485 239.37 77.047 239.72 77.5558 243.664C78.14 248.192 78.695 257.159 76.2413 258.562C73.1741 260.314 70.5452 265.572 73.6123 271.707C76.066 276.614 83.1059 275.796 86.3192 274.774C89.2403 275.358 94.031 277.578 89.8246 281.785C85.6181 285.991 72.8821 284.414 67.0398 283.099C55.6474 280.47 34.3524 271.181 40.3115 255.056C47.7604 234.9 60.0291 218.25 63.9726 212.554C67.9162 206.858 70.5452 205.543 77.5559 207.734C83.1645 209.487 81.6455 215.475 80.1849 218.25C75.5111 225.699 65.9882 240.947 65.2871 242.349C64.4108 244.102 63.5345 245.855 66.1635 247.607Z" fill="#B79621"/>
<rect y="450.042" width="251.509" height="251.509" rx="35" fill="#6846F2"/>
<path d="M220.838 637.578H56.0858H25.4139C37.5366 601.049 63.9729 522.284 72.7363 499.454C81.4996 476.623 90.4091 489.941 93.7684 499.454C102.532 528.943 121.285 591.346 126.193 605.044C131.1 618.743 138.462 610.752 141.529 605.044C147.371 591.536 161.071 559.155 169.134 537.695C177.196 516.234 186.514 528.753 190.166 537.695L220.838 637.578Z" fill="white"/>
<circle cx="134.956" cy="499.993" r="14.8978" fill="white"/>
<rect x="25.4139" y="647.218" width="195.424" height="15.7741" fill="white"/>
</svg>
