<svg id="Layer_1" data-name="Layer 1" xmlns="http://www.w3.org/2000/svg" xmlns:xlink="http://www.w3.org/1999/xlink" width="634.04" height="715.44" viewBox="0 0 634.04 715.44"><defs><style>.cls-1{fill:#2ac64b;}.cls-2{fill:#008a5a;}.cls-3{fill:#009550;}.cls-4{fill:#00983e;}.cls-5{fill:#009a37;}.cls-6{fill:#00863f;}.cls-7{fill:#06cbf6;}.cls-8{fill:url(#linear-gradient);}.cls-9{fill:#666565;}.cls-10{fill:#1e120d;}.cls-11{fill:url(#linear-gradient-2);}.cls-12{fill:url(#linear-gradient-3);}.cls-13{fill:url(#linear-gradient-4);}.cls-14{fill:#97cc1a;}.cls-15{fill:url(#linear-gradient-5);}.cls-16{fill:url(#linear-gradient-6);}.cls-17{fill:url(#linear-gradient-7);}.cls-18{fill:url(#linear-gradient-8);}.cls-19{fill:url(#linear-gradient-9);}.cls-20{fill:url(#linear-gradient-10);}</style><linearGradient id="linear-gradient" x1="-44443.81" y1="23585.61" x2="-43475.19" y2="23556.25" gradientTransform="matrix(0.25, 0, 0, -0.25, 11529.14, 6013.86)" gradientUnits="userSpaceOnUse"><stop offset="0" stop-color="#0288f7"/><stop offset="1" stop-color="#2ee2bd"/></linearGradient><linearGradient id="linear-gradient-2" x1="-44369.68" y1="22157.86" x2="-44607.95" y2="22747.06" gradientTransform="matrix(0.25, 0, 0, -0.25, 11529.14, 6013.86)" gradientUnits="userSpaceOnUse"><stop offset="0" stop-color="#cb1918"/><stop offset="0.39" stop-color="#a2183d"/><stop offset="0.75" stop-color="#902869"/><stop offset="1" stop-color="#73358a"/></linearGradient><linearGradient id="linear-gradient-3" x1="-44490.07" y1="22109.17" x2="-44728.34" y2="22698.38" xlink:href="#linear-gradient-2"/><linearGradient id="linear-gradient-4" x1="-44159.28" y1="22242.94" x2="-44397.55" y2="22832.15" xlink:href="#linear-gradient-2"/><linearGradient id="linear-gradient-5" x1="-43669.63" y1="22576.45" x2="-44015.39" y2="22198.77" gradientTransform="matrix(0.25, 0, 0, -0.25, 11529.14, 6013.86)" gradientUnits="userSpaceOnUse"><stop offset="0" stop-color="#add816"/><stop offset="1" stop-color="#dbd704"/></linearGradient><linearGradient id="linear-gradient-6" x1="-43931.1" y1="21850.8" x2="-44225.43" y2="22347.15" gradientTransform="matrix(0.25, 0, 0, -0.25, 11529.14, 6013.86)" gradientUnits="userSpaceOnUse"><stop offset="0" stop-color="#e1282b"/><stop offset="0.39" stop-color="#e3402a"/><stop offset="0.7" stop-color="#e76226"/><stop offset="1" stop-color="#f19a0a"/></linearGradient><linearGradient id="linear-gradient-7" x1="-43912.29" y1="21861.95" x2="-44206.62" y2="22358.31" xlink:href="#linear-gradient-6"/><linearGradient id="linear-gradient-8" x1="-43962.33" y1="21832.28" x2="-44256.66" y2="22328.63" xlink:href="#linear-gradient-6"/><linearGradient id="linear-gradient-9" x1="-44124.57" y1="21736.07" x2="-44418.9" y2="22232.43" xlink:href="#linear-gradient-6"/><linearGradient id="linear-gradient-10" x1="-44178.97" y1="21703.81" x2="-44473.3" y2="22200.17" xlink:href="#linear-gradient-6"/></defs><title>coreldraw-logo</title><path class="cls-1" d="M193.26,205c-6.8-3.08-12.68-5.48-17.47-7.28-1-7.55-1.74-15.11-2.21-22.7a101.45,101.45,0,0,1,.61-18.48c4.07.67,9.86,1.68,17.06,3.08a165.43,165.43,0,0,0,0,27.18Q192,195.94,193.26,205Zm67.17,39.66a394.81,394.81,0,0,0-47.33-29.86c-2.84-17.47-4.06-34.77-3-51.24,13,2.86,28.28,6.55,45.15,11.24-1.13,22,.95,45.72,5.17,69.86Zm176.41,9.19c-.17,1.91-.39,3.83-.6,5.76a254.5,254.5,0,0,0-67.81,51c-6.8,7.21-13,14.43-18.65,21.63q-9.51-12-20.32-24.35c-3.23-3.65-6.45-7.2-9.71-10.65-5.4-36.13-8.84-71.79-9.46-105.2,41.77,14.83,86.87,34.95,126.55,61.77Z" transform="translate(-57.98 -17.28)"/><path class="cls-2" d="M198.39,124.48a152.55,152.55,0,0,0-7.14,35.11c-7.2-1.4-13-2.41-17.06-3.08a102,102,0,0,1,2-11.3A227.92,227.92,0,0,1,198.39,124.48Z" transform="translate(-57.98 -17.28)"/><path class="cls-3" d="M280.12,78.43c-12.35,22.66-22.25,53.19-24.75,93.94l-.12,2.39c-16.86-4.68-32.17-8.37-45.13-11.23,0-.55.06-1.08.09-1.63a143.43,143.43,0,0,1,17.45-58.36A272.79,272.79,0,0,1,280.12,78.43Z" transform="translate(-57.98 -17.28)"/><path class="cls-4" d="M436.84,253.82c-39.69-26.82-84.78-46.94-126.56-61.77-.8-39.8,2.3-76.4,10.54-106.71.22-.83.44-1.66.69-2.47,33.13,19.58,76.29,41.4,117.27,51,3.57,36.13,2.5,77.19-1.94,120Z" transform="translate(-57.98 -17.28)"/><path class="cls-5" d="M577.5,175a315.46,315.46,0,0,1-7.14,50.08c-4.73.18-10.17.49-16.21,1a318.55,318.55,0,0,0,5.68-39.31c3.59-45-10.94-79.24-27.75-103.16q7.39,2.1,13.95,4.12C564.92,111.67,579.49,142.43,577.5,175Zm-42,53.27a330.59,330.59,0,0,0-43.7,9.31c3.59-22.58,5.15-44.63,3.89-65.2-2.86-46.92-15.56-80.27-30.5-103.7,14.05,2.31,27.38,5,39.67,7.93,19.62,23.17,33.5,52.07,36,85.31C542.44,183.08,540.17,205.66,535.51,228.26Z" transform="translate(-57.98 -17.28)"/><path class="cls-6" d="M438.78,133.87c-41-9.6-84.15-31.42-117.27-51a137.1,137.1,0,0,1,5.86-16.59q9.11-1.56,18.75-2.54a418.13,418.13,0,0,1,76.33-.37,146.56,146.56,0,0,1,7.81,22A295,295,0,0,1,438.78,133.87Z" transform="translate(-57.98 -17.28)"/><path class="cls-7" d="M261.86,41.52c-1.36.84-45.38,27.94-63.47,82.95a227.82,227.82,0,0,0-22.19,20.74C188.16,93.31,235.94,50.92,261.86,41.52Zm27.86,21.41a158.53,158.53,0,0,0-9.6,15.5,273.07,273.07,0,0,0-52.46,25.11c11.28-20.69,27.13-38.32,45-52.3,4.24,3,10,7,17.06,11.69Z" transform="translate(-57.98 -17.28)"/><path class="cls-8" d="M546,87.74q-6.56-2-14-4.12C512.22,55.34,489.17,41.5,489.17,41.5,504.47,47,527.37,64.07,546,87.74ZM504.87,76.6c-12.29-2.88-25.62-5.62-39.67-7.93C440,29.07,408.31,17.83,406.77,17.3,440.73,24.1,478.14,45,504.87,76.6ZM422.45,63.37a417.24,417.24,0,0,0-76.33.37q-9.66,1-18.75,2.54c18.17-42.87,47.75-49,47.75-49H376S404.19,23.12,422.45,63.37ZM344.31,17.3c-1.46.51-30.11,10.67-54.6,45.63-7-4.65-12.81-8.66-17.06-11.69C295,33.8,320.49,22.07,344.31,17.3Z" transform="translate(-57.98 -17.28)"/><path class="cls-9" d="M375.54,573.49h30.4l11.24-49.07H333.9l11.24,49.07Z" transform="translate(-57.98 -17.28)"/><path class="cls-10" d="M603.59,729.68l19.3.76L638.61,659,655,730.44h19.6l17.47-91H677.13l-11.55,74.91h-2.73L646,639.43H632.31l-16.56,74.91h-2.13l-12.31-74.91H585.2Zm-38-36-11.53-42.24h-3.19l-11.29,42.24Zm3.15,11.55H536.49l-6.74,25.22h-16l29.63-91H562l30.08,91h-16.4ZM457.12,682.28h19.3a15.05,15.05,0,0,0,15-15v-.75a15.05,15.05,0,0,0-15-15.05h-19.3Zm34.34,48.16-20.92-36.77H457.12v36.77H441v-91h38.21a26.67,26.67,0,0,1,26.67,26.66V667a26.67,26.67,0,0,1-18.85,25.49l21.58,37.94Zm-77.33-49.31v7.61a29.7,29.7,0,0,1-29.7,29.7h-9.2v-67h9.2A29.7,29.7,0,0,1,414.13,681.13Zm-25.76-41.7H360.18v91h28.19a40.34,40.34,0,0,0,40.34-40.34V679.77A40.34,40.34,0,0,0,388.37,639.43Zm-42.32,79.92h-2.13a3.8,3.8,0,0,1-3.79-3.8v-76h-16v75.51c0,23.86,23.4,16,23.4,16Zm-46.94-29.48H267s2.89-18.23,16-18.23S299.11,683.34,299.11,689.87Zm-46.19,6.46c0,24.39,15.49,32.9,28.41,35.48s28.26-6.69,28.26-6.69a93.88,93.88,0,0,0-5.93-9.26c-1.82,1.21-12.92,9-24.31,3.49s-12.61-19.3-12.61-19.3h44.82c2.89-30.53-13.37-39.65-27.35-39.65-13.22,0-31.29,11.55-31.29,35.93Zm-4.41-22.11s1.21-5,2.88-12.61c-15-7.14-29,14.44-29,14.44V661.61H209.61v68.53H224.2V688.36c10.94-19.15,24.31-14.14,24.31-14.14ZM185.45,696.1c0,13.22-8,23.93-17.77,23.93S149.9,709.32,149.9,696.1s8-23.93,17.78-23.93S185.45,682.89,185.45,696.1Zm-18.23-35.7c-17.88,0-32.36,16-32.36,35.7s14.48,35.71,32.36,35.71,32.36-16,32.36-35.71S185.09,660.4,167.22,660.4Zm-37.91,58.72c-7.57,8.41-17.91,13.6-29.33,13.6-23.2,0-42-21.43-42-47.86S76.78,637,100,637A38.94,38.94,0,0,1,127,648.24l-8.38,10.7c-4.78-5.14-11-8.27-17.75-8.27-15.07,0-27.28,15.31-27.28,34.19s12.21,34.19,27.28,34.19c7.37,0,14-3.68,18.95-9.64Z" transform="translate(-57.98 -17.28)"/><path class="cls-11" d="M260.73,353.81c5.84,12.09,11.42,22.89,16.22,31.89a447.15,447.15,0,0,0,24.15,40.45A251.56,251.56,0,0,1,310,400.43c-6.27-14.38-12.56-29.82-18.53-45.91-13-34.95-24.56-73-31-109.89a393.75,393.75,0,0,0-47.34-29.86c8,49.71,29.16,100.88,47.64,139Z" transform="translate(-57.98 -17.28)"/><path class="cls-12" d="M233.26,353.18q5,8.67,10.33,17.47c16.69,27.37,36,52.64,53.13,73.17.5-2.49,1.09-5.05,1.75-7.66-7-9.54-13.72-19.24-19.55-28.23-8.35-12.86-20.44-31.5-33-54.44C224.3,314.13,201.25,262.12,193.26,205c-6.8-3.08-12.68-5.47-17.47-7.28,6.9,51.25,26.49,101.53,57.47,155.49Z" transform="translate(-57.98 -17.28)"/><path class="cls-13" d="M322.77,316.32c2.16,12.94,4.7,26.09,7.44,39.07.26,1.24.53,2.48.79,3.71a290.81,290.81,0,0,1,18.78-26.85q-9.84-12.44-20.32-24.35-4.83-5.47-9.71-10.64,1.41,9.53,3,19.06Z" transform="translate(-57.98 -17.28)"/><path class="cls-14" d="M554.15,226.09c-7.73,37.55-21.36,72.33-35.84,102.07,2.93,2.94,5.79,5.87,8.55,8.77,20.65-38.37,35.31-75.08,43.5-111.86C565.63,225.26,560.19,225.56,554.15,226.09Zm-62.34,11.48A507.94,507.94,0,0,1,480,291.85c8.53,7.7,17.87,16.32,27,25.17,11.48-27.4,22.2-58.11,28.52-88.76a330.59,330.59,0,0,0-43.7,9.31Z" transform="translate(-57.98 -17.28)"/><path class="cls-15" d="M368.43,310.62c-6.8,7.2-13,14.43-18.65,21.63a580.18,580.18,0,0,1,56.34,85.66c4.83-18.66,9.84-39.31,14.32-60.47,2.9-13.65,5.58-27.49,7.87-41.12,3.21-19,5.89-38,7.93-56.74A254.44,254.44,0,0,0,368.43,310.62Zm149.88,17.54c-.55,1.14-1.11,2.27-1.66,3.39-16.39,33.07-33.61,59.62-44.5,76.38-12.56,19.34-29.47,42-42.88,59.34.48,1.28,1,2.48,1.4,3.61,20.76-22.62,51.72-59.07,76.82-100.23q9.43-15.5,17.68-30.58l1.69-3.14c-2.76-2.9-5.62-5.83-8.55-8.77ZM480,291.85l-.65,2.37C463.39,351.68,439.15,407.35,420,445.71c2.09,4.56,4,8.81,5.65,12.7,17.71-21.08,32.31-42.42,48.5-72.71,8.9-16.67,20.43-39.39,31.43-65.25L507,317c-9.17-8.85-18.51-17.47-27-25.17Z" transform="translate(-57.98 -17.28)"/><path class="cls-16" d="M391.53,495.71c13-13.41,24-25.32,34.09-37.3-1.67-3.89-3.56-8.14-5.65-12.7C406.39,472.89,395.31,491.39,391.53,495.71Z" transform="translate(-57.98 -17.28)"/><path class="cls-17" d="M407.42,494.92c.69-.67,9.86-9.49,23.25-24-.45-1.13-.92-2.33-1.4-3.61C417.28,482.8,408.13,494.07,407.42,494.92Z" transform="translate(-57.98 -17.28)"/><path class="cls-18" d="M331,359.1c15.3,71.55,36.27,137.18,36.27,137.18h16.54s10.64-33.33,22.31-78.37a580.18,580.18,0,0,0-56.34-85.66A290.81,290.81,0,0,0,331,359.1Z" transform="translate(-57.98 -17.28)"/><path class="cls-19" d="M301.1,426.15c16.72,24.83,34.34,44.57,58.45,69.56-5.62-6.42-27.37-44.22-49.57-95.28a251.56,251.56,0,0,0-8.88,25.72Z" transform="translate(-57.98 -17.28)"/><path class="cls-20" d="M296.72,443.82a682,682,0,0,0,47,51.1c-1.12-1.37-23.89-29.37-45.21-58.76-.66,2.61-1.25,5.17-1.75,7.66Z" transform="translate(-57.98 -17.28)"/></svg>