<?xml version="1.0" encoding="UTF-8" standalone="no"?>
<!-- Created with Inkscape (http://www.inkscape.org/) -->

<svg
   width="30mm"
   height="30mm"
   viewBox="0 0 30 30"
   version="1.1"
   id="svg2080"
   inkscape:version="1.1.1 (3bf5ae0d25, 2021-09-20)"
   sodipodi:docname="css.svg"
   xmlns:inkscape="http://www.inkscape.org/namespaces/inkscape"
   xmlns:sodipodi="http://sodipodi.sourceforge.net/DTD/sodipodi-0.dtd"
   xmlns="http://www.w3.org/2000/svg"
   xmlns:svg="http://www.w3.org/2000/svg">
  <sodipodi:namedview
     id="namedview2082"
     pagecolor="#505050"
     bordercolor="#ffffff"
     borderopacity="1"
     inkscape:pageshadow="0"
     inkscape:pageopacity="0"
     inkscape:pagecheckerboard="1"
     inkscape:document-units="mm"
     showgrid="false"
     inkscape:zoom="2.1997092"
     inkscape:cx="102.28625"
     inkscape:cy="94.330651"
     inkscape:window-width="1536"
     inkscape:window-height="801"
     inkscape:window-x="-8"
     inkscape:window-y="103"
     inkscape:window-maximized="1"
     inkscape:current-layer="layer1" />
  <defs
     id="defs2077" />
  <g
     inkscape:label="Warstwa 1"
     inkscape:groupmode="layer"
     id="layer1">
    <g
       id="g2507"
       transform="matrix(0.31124786,0,0,-0.31124786,9.8351028,0.75003864)"
       style="fill:#ffffff">
      <path
         d="M 0,0 H 9.919 V -4.148 H 4.148 v -4.148 h 5.771 v -4.148 H 0 Z"
         style="fill:#ffffff;fill-opacity:1;fill-rule:nonzero;stroke:none"
         id="path2509" />
    </g>
    <g
       id="g2511"
       transform="matrix(0.31124786,0,0,-0.31124786,13.539981,0.75003864)"
       style="fill:#ffffff">
      <path
         d="M 0,0 H 9.919 V -3.607 H 4.148 v -0.721 h 5.771 v -8.297 H 0 v 3.788 h 5.771 v 0.721 H 0 Z"
         style="fill:#ffffff;fill-opacity:1;fill-rule:nonzero;stroke:none"
         id="path2513" />
    </g>
    <g
       id="g2515"
       transform="matrix(0.31124786,0,0,-0.31124786,17.244734,0.75003864)"
       style="fill:#ffffff">
      <path
         d="M 0,0 H 9.92 V -3.607 H 4.148 V -4.328 H 9.92 v -8.297 H 0 v 3.788 h 5.771 v 0.721 H 0 Z"
         style="fill:#ffffff;fill-opacity:1;fill-rule:nonzero;stroke:none"
         id="path2517" />
    </g>
    <g
       id="g2519"
       transform="matrix(0.31124786,0,0,-0.31124786,21.1405,15.806031)"
       style="fill:#ffffff">
      <path
         d="m 0,0 -0.2,-2.199 -1.924,-21.561 -0.124,-1.384 -16.761,-4.646 v -0.001 l -0.038,-0.01 -16.776,4.657 -1.147,12.859 h 3.789 4.432 l 0.583,-6.531 9.121,-2.463 0.008,0.002 v 0 l 9.134,2.465 0.951,10.622 h -10.057 -0.028 -18.299 L -38.07,0 h 19.033 0.028 10.767 l 0.745,8.386 h -11.512 -0.028 -19.764 l -0.744,8.19 h 20.508 0.028 20.488 z m -51.719,30.226 5.954,-66.776 26.716,-7.416 26.79,7.426 5.96,66.766 z"
         style="fill:#ffffff;fill-opacity:1;fill-rule:nonzero;stroke:none"
         id="path2521" />
    </g>
  </g>
</svg>
