<?xml version="1.0" encoding="UTF-8" standalone="no"?>
<!-- Created with Inkscape (http://www.inkscape.org/) -->

<svg
   width="30mm"
   height="30mm"
   viewBox="0 0 30 30"
   version="1.1"
   id="svg2080"
   xmlns="http://www.w3.org/2000/svg"
   xmlns:svg="http://www.w3.org/2000/svg">
  <defs
     id="defs2077" />
  <g
     id="layer1">
    <g
       id="g1213"
       transform="matrix(0.55101876,0,0,-0.55101876,2.1720217,1.3245776)">
      <path
         d="M 0,0 C -1.012,0 -1.834,-0.823 -1.834,-1.834 V -48.166 C -1.834,-49.177 -1.012,-50 0,-50 h 46.331 c 1.012,0 1.835,0.823 1.835,1.834 V -1.834 C 48.166,-0.823 47.343,0 46.331,0 Z M 46.331,-52 H 0 c -2.114,0 -3.834,1.72 -3.834,3.834 V -1.834 C -3.834,0.28 -2.114,2 0,2 h 46.331 c 2.114,0 3.835,-1.72 3.835,-3.834 V -48.166 C 50.166,-50.28 48.445,-52 46.331,-52"
         style="fill:#ffffff;fill-opacity:1;fill-rule:nonzero;stroke:none"
         id="path1215" />
    </g>
    <g
       id="g1217"
       transform="matrix(0.55101876,0,0,-0.55101876,13.812569,16.215254)">
      <path
         d="m 0,0 -1.26,4.29 c -0.36,1.2 -0.719,2.699 -1.02,3.899 H -2.34 C -2.64,6.989 -2.939,5.459 -3.27,4.29 L -4.47,0 Z m -5.129,-3.42 -1.44,-5.19 h -4.741 l 6.181,20.219 H 0.87 L 7.14,-8.61 H 2.22 l -1.56,5.19 z"
         style="fill:#ffffff;fill-opacity:1;fill-rule:nonzero;stroke:none"
         id="path1219" />
    </g>
    <path
       d="m 19.053308,12.876245 h 2.512646 v 8.082895 h -2.512646 z m 2.594747,-2.247606 c 0,0.693733 -0.528977,1.255773 -1.354955,1.255773 -0.794018,0 -1.322995,-0.56204 -1.305914,-1.255773 -0.01709,-0.7278949 0.511896,-1.2728537 1.322444,-1.2728537 0.809448,0 1.321895,0.5449588 1.338425,1.2728537"
       style="fill:#ffffff;fill-opacity:1;fill-rule:nonzero;stroke:none;stroke-width:0.551019"
       id="path1221" />
  </g>
</svg>
