<?xml version="1.0" encoding="UTF-8" standalone="no"?>
<!-- Created with Inkscape (http://www.inkscape.org/) -->

<svg
   width="30mm"
   height="30mm"
   viewBox="0 0 30 30"
   version="1.1"
   id="svg2080"
   xmlns="http://www.w3.org/2000/svg"
   xmlns:svg="http://www.w3.org/2000/svg">
  <defs
     id="defs2077" />
  <g
     id="layer1">
    <g
       id="g1259"
       transform="matrix(0.55101509,0,0,-0.55101509,2.3383067,1.312733)">
      <path
         d="M 0,0 C -1.012,0 -1.835,-0.823 -1.835,-1.834 V -48.166 C -1.835,-49.177 -1.012,-50 0,-50 h 46.331 c 1.011,0 1.835,0.823 1.835,1.834 V -1.834 C 48.166,-0.823 47.342,0 46.331,0 Z M 46.331,-52 H 0 c -2.115,0 -3.835,1.72 -3.835,3.834 V -1.834 C -3.835,0.28 -2.115,2 0,2 h 46.331 c 2.114,0 3.835,-1.72 3.835,-3.834 V -48.166 C 50.166,-50.28 48.445,-52 46.331,-52"
         style="fill:#ffffff;fill-opacity:1;fill-rule:nonzero;stroke:none"
         id="path1261" />
    </g>
    <path
       d="M 11.466149,20.947715 H 8.9369892 V 9.8067415 h 2.5291598 z"
       style="fill:#ffffff;fill-opacity:1;fill-rule:nonzero;stroke:none;stroke-width:0.551015"
       id="path1263" />
    <g
       id="g1265"
       transform="matrix(0.55101509,0,0,-0.55101509,18.838346,16.286183)">
      <path
         d="m 0,0 c 0,0.24 -0.029,0.57 -0.06,0.81 -0.27,1.23 -1.26,2.25 -2.669,2.25 -2.07,0 -3.15,-1.86 -3.15,-4.17 0,-2.49 1.23,-4.05 3.119,-4.05 1.321,0 2.37,0.9 2.641,2.19 C -0.029,-2.64 0,-2.31 0,-1.92 Z M 4.561,12.84 V -4.08 c 0,-1.649 0.059,-3.39 0.119,-4.379 H 0.631 L 0.42,-6.3 H 0.36 c -0.93,-1.65 -2.7,-2.49 -4.589,-2.49 -3.48,0 -6.271,2.971 -6.271,7.53 -0.029,4.95 3.061,7.8 6.57,7.8 1.801,0 3.21,-0.63 3.87,-1.65 H 0 v 7.95 z"
         style="fill:#ffffff;fill-opacity:1;fill-rule:nonzero;stroke:none"
         id="path1267" />
    </g>
  </g>
</svg>
