<svg width="91" height="88" viewBox="0 0 91 88" fill="none" xmlns="http://www.w3.org/2000/svg">
<path d="M36.9078 2.99468L3.49469 36.3828C-7.79473 50.0348 11.1777 48.4464 19.3108 52.3786C22.2283 55.2907 8.12836 57.4401 11.0458 60.3546C13.9633 63.2667 28.6876 65.965 31.6101 68.8771C34.5275 71.7892 25.6383 74.8786 28.5558 77.7907C31.4733 80.7027 38.221 77.9437 39.4845 84.6665C40.3849 89.4706 51.6445 86.7309 57.1512 82.7963C60.0687 79.8818 51.5699 80.1563 54.4874 77.2442C61.7425 69.9992 68.4978 74.6114 70.98 67.3519C72.2062 63.7646 60.3 61.8216 63.2224 58.9095C71.6168 54.1224 100.63 51.0063 86.8633 37.5632L52.229 2.99468C47.9933 -0.976338 40.9246 -1.02006 36.9078 2.99468ZM75.2879 67.3519C75.2879 69.0083 87.7861 70.0939 87.7861 66.9608C86.0052 61.9285 76.7653 62.2685 75.2879 67.3519ZM18.9875 76.1537C21.9473 78.6529 26.5187 75.5319 27.8892 72.0442C25.0215 68.3234 14.2867 72.1778 18.9875 76.1537ZM73.7209 70.7546C69.9056 74.0965 74.1487 77.4871 77.9094 75.3279C78.7476 74.4973 77.887 71.5852 73.7209 70.7546Z" fill="black"/>
<path d="M28.9114 54.1855C29.8043 54.7272 43.3099 57.4061 46.6104 57.9404C47.7545 58.176 46.9437 59.3272 45.3668 60.1044C41.8101 61.0274 24.5588 54.1855 28.9114 54.1855V54.1855Z" fill="white"/>
<path d="M50.2094 5.3364L63.4289 18.4468C64.6824 19.6976 64.665 22.1215 63.9636 22.8186L57.3999 17.6915L56.109 25.2838L50.6248 22.4567L41.8424 27.8753L38.9349 16.4528L34.2167 24.424H27.0038C24.0639 24.424 23.7182 20.7809 26.3894 18.1724C31.0554 13.2541 36.4104 8.24119 39.3204 5.3364C42.2454 2.41704 47.3416 2.49962 50.2094 5.3364V5.3364Z" fill="white"/>
</svg>
