<?xml version="1.0" encoding="UTF-8" standalone="no"?>
<!-- Created with Inkscape (http://www.inkscape.org/) -->

<svg
   width="30mm"
   height="30mm"
   viewBox="0 0 30 30"
   version="1.1"
   id="svg2080"
   inkscape:version="1.1.1 (3bf5ae0d25, 2021-09-20)"
   sodipodi:docname="js.svg"
   xmlns:inkscape="http://www.inkscape.org/namespaces/inkscape"
   xmlns:sodipodi="http://sodipodi.sourceforge.net/DTD/sodipodi-0.dtd"
   xmlns="http://www.w3.org/2000/svg"
   xmlns:svg="http://www.w3.org/2000/svg">
  <sodipodi:namedview
     id="namedview2082"
     pagecolor="#505050"
     bordercolor="#ffffff"
     borderopacity="1"
     inkscape:pageshadow="0"
     inkscape:pageopacity="0"
     inkscape:pagecheckerboard="1"
     inkscape:document-units="mm"
     showgrid="false"
     inkscape:zoom="1.0998546"
     inkscape:cx="52.734243"
     inkscape:cy="181.38761"
     inkscape:window-width="1536"
     inkscape:window-height="801"
     inkscape:window-x="-8"
     inkscape:window-y="103"
     inkscape:window-maximized="1"
     inkscape:current-layer="layer1" />
  <defs
     id="defs2077" />
  <g
     inkscape:label="Warstwa 1"
     inkscape:groupmode="layer"
     id="layer1">
    <g
       id="g2567"
       transform="matrix(0.30813748,0,0,-0.30813748,19.933683,23.426951)"
       style="fill:#ffffff">
      <path
         d="M 0,0 -16.654,-4.729 -33.308,0 -34.483,12.672 h 8.225 l 0.543,-6.341 9.061,-2.611 8.924,2.572 0.913,10.479 h -9.837 -18.14 l -0.048,-0.156 2.289,24.773 H -16.654 0.382 L 2.191,28.416 h -8.298 l -0.304,4.747 h -10.243 -9.217 l -0.378,-8.293 h 9.595 18.946 z m -16.654,54.895 h -32.541 l 6.098,-66.16 26.443,-7.496 26.433,7.496 6.108,66.16 z"
         style="fill:#ffffff;fill-opacity:1;fill-rule:nonzero;stroke:none"
         id="path2569" />
    </g>
    <g
       id="g2571"
       transform="matrix(0.30813748,0,0,-0.30813748,12.850442,3.504535)"
       style="fill:#ffffff">
      <path
         d="M 0,0 H -5.787 V -4.156 H 0 3.099 4.147 V 8.196 H 0 Z"
         style="fill:#ffffff;fill-opacity:1;fill-rule:nonzero;stroke:none"
         id="path2573" />
    </g>
    <g
       id="g2575"
       transform="matrix(0.30813748,0,0,-0.30813748,18.536836,0.99836081)"
       style="fill:#ffffff">
      <path
         d="m 0,0 h -10.095 v -4.326 c 1.35,-1.35 2.055,-1.997 4.009,-3.95 -1.143,0 -4.009,-0.004 -4.009,-0.004 v -3.946 H 0 v 3.947 l -4.032,3.953 H 0 Z"
         style="fill:#ffffff;fill-opacity:1;fill-rule:nonzero;stroke:none"
         id="path2577" />
    </g>
  </g>
</svg>
