<?xml version="1.0" encoding="UTF-8" standalone="no"?>
<!-- Created with Inkscape (http://www.inkscape.org/) -->

<svg
   width="30mm"
   height="30mm"
   viewBox="0 0 30 30"
   version="1.1"
   id="svg2080"
   xmlns="http://www.w3.org/2000/svg"
   xmlns:svg="http://www.w3.org/2000/svg">
  <defs
     id="defs2077" />
  <g
     id="layer1">
    <g
       id="g1223"
       transform="matrix(0.55123138,0,0,-0.55123138,2.1688891,1.2035068)">
      <path
         d="M 0,0 C -1.012,0 -1.834,-0.823 -1.834,-1.834 V -48.166 C -1.834,-49.177 -1.012,-50 0,-50 h 46.331 c 1.012,0 1.835,0.823 1.835,1.834 V -1.834 C 48.166,-0.823 47.343,0 46.331,0 Z M 46.331,-52 H 0 c -2.114,0 -3.834,1.72 -3.834,3.834 V -1.834 C -3.834,0.28 -2.114,2 0,2 h 46.331 c 2.114,0 3.835,-1.72 3.835,-3.834 V -48.166 C 50.166,-50.28 48.445,-52 46.331,-52"
         style="fill:#ffffff;fill-opacity:1;fill-rule:nonzero;stroke:none"
         id="path1225" />
    </g>
    <g
       id="g1227"
       transform="matrix(0.55123138,0,0,-0.55123138,10.30815,14.909489)">
      <path
         d="m 0,0 c 0.39,-0.09 0.87,-0.12 1.53,-0.12 2.43,0 3.93,1.23 3.93,3.3 0,1.86 -1.29,2.97 -3.57,2.97 C 0.96,6.15 0.33,6.06 0,5.97 Z M -4.53,9.18 C -3.12,9.419 -1.14,9.6 1.65,9.6 4.47,9.6 6.479,9.06 7.83,7.979 9.12,6.96 9.99,5.28 9.99,3.3 9.99,1.32 9.33,-0.36 8.129,-1.5 6.57,-2.97 4.26,-3.63 1.56,-3.63 0.96,-3.63 0.42,-3.6 0,-3.54 v -7.23 h -4.53 z"
         style="fill:#ffffff;fill-opacity:1;fill-rule:nonzero;stroke:none"
         id="path1229" />
    </g>
    <g
       id="g1231"
       transform="matrix(0.55123138,0,0,-0.55123138,16.972483,18.646674)">
      <path
         d="m 0,0 c 0.84,-0.51 2.58,-1.11 3.93,-1.11 1.38,0 1.95,0.48 1.95,1.23 0,0.75 -0.45,1.11 -2.16,1.68 -3.03,1.02 -4.2,2.67 -4.17,4.41 0,2.73 2.34,4.8 5.97,4.8 1.71,0 3.24,-0.39 4.14,-0.84 L 8.85,7.02 C 8.19,7.38 6.93,7.86 5.67,7.86 4.56,7.86 3.93,7.41 3.93,6.66 3.93,5.97 4.5,5.61 6.3,4.98 9.09,4.02 10.26,2.61 10.29,0.45 c 0,-2.73 -2.16,-4.74 -6.36,-4.74 -1.92,0 -3.63,0.42 -4.74,1.02 z"
         style="fill:#ffffff;fill-opacity:1;fill-rule:nonzero;stroke:none"
         id="path1233" />
    </g>
  </g>
</svg>
