<?xml version="1.0" encoding="UTF-8" standalone="no"?>
<!-- Created with Inkscape (http://www.inkscape.org/) -->

<svg
   width="30mm"
   height="30mm"
   viewBox="0 0 30 30"
   version="1.1"
   id="svg2080"
   inkscape:version="1.1.1 (3bf5ae0d25, 2021-09-20)"
   sodipodi:docname="php.svg"
   xmlns:inkscape="http://www.inkscape.org/namespaces/inkscape"
   xmlns:sodipodi="http://sodipodi.sourceforge.net/DTD/sodipodi-0.dtd"
   xmlns="http://www.w3.org/2000/svg"
   xmlns:svg="http://www.w3.org/2000/svg">
  <sodipodi:namedview
     id="namedview2082"
     pagecolor="#505050"
     bordercolor="#ffffff"
     borderopacity="1"
     inkscape:pageshadow="0"
     inkscape:pageopacity="0"
     inkscape:pagecheckerboard="1"
     inkscape:document-units="mm"
     showgrid="false"
     inkscape:zoom="1.5554293"
     inkscape:cx="58.504749"
     inkscape:cy="83.256758"
     inkscape:window-width="1536"
     inkscape:window-height="801"
     inkscape:window-x="-8"
     inkscape:window-y="103"
     inkscape:window-maximized="1"
     inkscape:current-layer="layer1" />
  <defs
     id="defs2077" />
  <g
     inkscape:label="Warstwa 1"
     inkscape:groupmode="layer"
     id="layer1">
    <g
       id="g2623"
       transform="matrix(0.32046468,0,0,-0.32046468,5.8188557,11.896888)"
       style="fill:#ffffff">
      <path
         d="m 0,0 c -0.602,-0.031 -1.475,-0.118 -2.346,-0.108 -0.612,0.007 -0.834,-0.234 -0.947,-0.817 -0.845,-4.32 -1.714,-8.636 -2.596,-12.948 -0.152,-0.74 0.033,-1.057 0.836,-1.05 2.576,0.022 5.144,0.125 7.648,0.785 1.259,0.331 2.3,1.045 2.967,2.191 1.557,2.676 2.196,5.573 1.912,8.648 C 7.353,-1.987 6.655,-1.108 5.303,-0.707 3.65,-0.216 1.954,-0.203 0,0 m -15.862,-28.496 c 0.976,1.767 1,3.78 1.39,5.685 1.84,8.973 3.585,17.965 5.338,26.956 0.193,0.989 0.555,1.407 1.683,1.381 C -3.563,5.437 0.328,5.497 4.217,5.488 6.473,5.483 8.675,5.215 10.653,4.002 c 2.792,-1.712 3.953,-4.364 4.002,-7.482 0.087,-5.622 -1.764,-10.46 -6.167,-14.162 -2.403,-2.02 -5.313,-2.495 -8.289,-2.663 -2.084,-0.116 -4.18,-0.078 -6.27,-0.03 -0.827,0.019 -1.186,-0.19 -1.336,-1.063 -0.416,-2.436 -0.992,-4.843 -1.409,-7.279 -0.138,-0.8 -0.424,-1.045 -1.213,-1.022 -1.943,0.055 -3.888,0.029 -5.833,0.035 z"
         style="fill:#ffffff;fill-opacity:1;fill-rule:nonzero;stroke:none"
         id="path2625" />
    </g>
    <g
       id="g2627"
       transform="matrix(0.32046468,0,0,-0.32046468,23.553659,16.658196)"
       style="fill:#ffffff">
      <path
         d="m 0,0 c 0.728,0.035 1.461,0.022 2.18,0.115 2.659,0.344 5.396,0.575 6.761,3.45 1.164,2.45 1.76,5.03 1.554,7.746 C 10.382,12.791 9.676,13.814 8.1,14.197 5.57,14.813 3.023,14.883 0.446,14.744 -0.16,14.712 -0.199,14.374 -0.292,13.903 -1.032,10.15 -1.827,6.408 -2.562,2.654 -3.131,-0.256 -3.104,-0.262 0,0 m -12.836,-14.825 c 2.267,11.463 4.508,22.766 6.73,34.074 0.169,0.864 0.561,1.138 1.461,1.125 3.936,-0.058 7.873,-0.025 11.81,-0.025 1.413,0 2.823,-0.091 4.183,-0.479 3.679,-1.05 6.008,-4.022 6.232,-7.88 C 17.795,8.269 17.073,4.761 15.172,1.529 12.492,-3.027 8.508,-5.379 3.214,-5.464 1.077,-5.498 -1.062,-5.519 -3.2,-5.48 c -0.781,0.013 -1.064,-0.207 -1.2,-1.02 -0.401,-2.387 -0.993,-4.741 -1.391,-7.128 -0.165,-0.984 -0.554,-1.261 -1.512,-1.22 -1.791,0.077 -3.587,0.023 -5.533,0.023"
         style="fill:#ffffff;fill-opacity:1;fill-rule:nonzero;stroke:none"
         id="path2629" />
    </g>
    <g
       id="g2631"
       transform="matrix(0.32046468,0,0,-0.32046468,15.12422,7.1109077)"
       style="fill:#ffffff">
      <path
         d="m 0,0 c -0.572,-2.792 -1.094,-5.495 -1.692,-8.182 -0.226,-1.012 0.012,-1.287 1.078,-1.29 3.147,-0.008 6.32,0.324 9.417,-0.604 3.638,-1.09 5.237,-3.39 4.57,-7.119 -1.042,-5.82 -2.261,-11.608 -3.363,-17.418 -0.113,-0.59 -0.362,-0.684 -0.856,-0.681 -1.991,0.013 -3.982,0.005 -6.141,0.005 0.824,4.105 1.637,8.111 2.431,12.121 0.31,1.568 0.665,3.137 0.848,4.722 0.237,2.067 -0.673,3.154 -2.754,3.274 -1.94,0.111 -3.892,0.015 -5.835,0.083 -0.779,0.028 -0.812,-0.404 -0.923,-0.965 -1.212,-6.084 -2.468,-12.158 -3.645,-18.248 -0.152,-0.784 -0.372,-1.037 -1.163,-1.006 -1.554,0.063 -3.116,0.088 -4.667,-0.005 -1.037,-0.063 -1.09,0.346 -0.921,1.177 1.183,5.795 2.335,11.597 3.502,17.395 1.042,5.178 2.123,10.349 3.107,15.538 0.187,0.981 0.548,1.263 1.503,1.224 C -3.71,-0.052 -1.912,0 0,0"
         style="fill:#ffffff;fill-opacity:1;fill-rule:nonzero;stroke:none"
         id="path2633" />
    </g>
  </g>
</svg>
