<svg width="504" height="504" viewBox="0 0 504 504" fill="none" xmlns="http://www.w3.org/2000/svg">
<path d="M504 252.496C504 312.044 482.829 369.66 444.255 415.09C405.681 460.52 352.207 490.816 293.349 500.587C234.492 510.358 174.07 498.969 122.837 468.448C71.6045 437.927 32.8849 390.253 13.5698 333.912C-5.74541 277.571 -4.40303 216.217 17.358 160.771C39.119 105.325 79.8868 59.3832 132.406 31.1229C184.925 2.86262 245.787 -5.88296 304.161 6.44268C362.535 18.7683 414.633 51.3655 451.184 98.4327L442.468 105.174C407.517 60.1663 357.698 28.9954 301.879 17.2091C246.059 5.42278 187.86 13.7857 137.639 40.8094C87.4179 67.8331 48.4339 111.764 27.6251 164.784C6.81627 217.804 5.53263 276.473 24.0026 330.349C42.4726 384.225 79.498 429.813 128.489 458.999C177.48 488.185 235.258 499.075 291.54 489.732C347.822 480.388 398.957 451.418 435.843 407.975C472.729 364.533 492.974 309.438 492.974 252.496H504Z" fill="#962222"/>
</svg>
