<svg width="448" height="448" viewBox="0 0 448 448" fill="none" xmlns="http://www.w3.org/2000/svg">
<path d="M8.33246 281.788C-5.35003 230.725 -0.47005 176.462 22.1039 128.659C44.6778 80.8563 83.4811 42.6137 131.608 20.7379C179.734 -1.1379 234.062 -5.2276 284.921 9.19663C335.78 23.6209 379.871 55.6233 409.347 99.508C438.823 143.393 451.772 196.313 445.888 248.849C440.005 301.386 415.671 350.131 377.218 386.408C338.764 422.686 288.686 444.142 235.896 446.959C183.106 449.775 131.029 433.769 88.9339 401.79L94.8439 394.01C135.097 424.591 184.895 439.896 235.376 437.203C285.856 434.509 333.742 413.992 370.513 379.302C407.284 344.612 430.553 298 436.179 247.762C441.805 197.524 429.424 146.92 401.237 104.955C373.051 62.9908 330.889 32.3887 282.255 18.5957C233.621 4.80261 181.671 8.71337 135.65 29.632C89.6297 50.5505 52.5243 87.1198 30.9381 132.831C9.35197 178.542 4.68551 230.43 17.7693 279.26L8.33246 281.788Z" fill="#CC3434"/>
</svg>
