<svg width="259" height="274" viewBox="0 0 259 274" fill="none" xmlns="http://www.w3.org/2000/svg">
<rect x="0.163818" y="41.6677" width="258.52" height="232.23" rx="13" fill="#CCA51D"/>
<rect x="19.8145" y="56.0601" width="219.219" height="196.434" stroke="white" stroke-width="6" stroke-dasharray="14 14"/>
<rect x="31.7119" y="175.748" width="194.547" height="6.13437" fill="white"/>
<rect x="31.7119" y="194.151" width="194.547" height="6.13437" fill="white"/>
<rect x="31.7119" y="212.554" width="131.451" height="6.13437" fill="white"/>
<rect x="188.577" y="230.957" width="37.6826" height="6.13437" fill="white"/>
<path d="M111.567 164H82.383V161.024L91.407 154.016L84.015 136.256H51.759L43.887 154.4L60.783 160.16L58.863 164H29.679V161.024L38.703 153.92L65.871 91.616L75.855 86.72L103.887 154.304L113.487 160.16L111.567 164ZM68.271 98.24L53.679 131.936H82.287L68.271 98.24ZM168.794 164H150.554V155.648L139.706 164.192C138.426 164.704 136.826 164.96 134.906 164.96C129.402 164.96 125.402 163.584 122.906 160.832C120.474 158.08 119.258 154.784 119.258 150.944C119.258 148.64 120.09 146.368 121.754 144.128C123.418 141.888 125.786 139.776 128.858 137.792H150.554V131.648C150.554 127.488 149.434 124.544 147.194 122.816C145.018 121.088 142.01 120.224 138.17 120.224C134.202 120.224 129.338 122.624 123.578 127.424L120.698 123.776L134.522 112.832C137.082 112.32 140.154 112.064 143.738 112.064C149.562 112.064 154.074 113.504 157.274 116.384C160.474 119.2 162.074 123.328 162.074 128.768V156.8L170.714 160.16L168.794 164ZM137.978 156.8C141.882 156.8 146.074 155.008 150.554 151.424V141.728H133.562C132.73 142.752 132.122 143.776 131.738 144.8C131.418 145.824 131.258 146.944 131.258 148.16C131.258 150.528 131.866 152.576 133.082 154.304C134.298 155.968 135.93 156.8 137.978 156.8Z" fill="white"/>
</svg>
